<?xml version="1.0" encoding="utf-8"?>
<!-- Generator: Adobe Illustrator 23.0.2, SVG Export Plug-In . SVG Version: 6.00 Build 0)  -->
<svg version="1.1" id="Layer_1" xmlns="http://www.w3.org/2000/svg" xmlns:xlink="http://www.w3.org/1999/xlink" x="0px" y="0px"
	 viewBox="0 0 100 100" style="enable-background:new 0 0 100 100;" xml:space="preserve">
<style type="text/css">
	.st0{opacity:0.5;}
</style>
<g class="st0">
	<path d="M74.8,63.8c1.2,1,1.8,2.3,1.8,3.7v11.1h-4.1V67.5c0-0.3-0.2-0.5-0.6-0.8c-0.4-0.3-0.9-0.4-1.5-0.4H29.5
		c-0.6,0-1.1,0.1-1.5,0.4c-0.4,0.3-0.6,0.5-0.6,0.8v11.1h-4.1V67.5c0-1.4,0.6-2.7,1.8-3.7c1.2-1,2.6-1.5,4.3-1.5h10.2v-4.1H37
		c-1.5,0-2.8-0.7-3.8-2c-1-1.4-1.5-3.1-1.5-5.1v-1h-4.1v-8.2h4.1v-1c0-2,0.5-3.8,1.5-5.1c1-1.4,2.3-2,3.8-2h11v-4.7
		c-1.4-0.8-2-1.9-2-3.5c0-1.1,0.4-2.1,1.2-2.9c0.8-0.8,1.8-1.2,2.9-1.2c1.1,0,2.1,0.4,2.9,1.2c0.8,0.8,1.2,1.8,1.2,2.9
		c0,1.5-0.7,2.7-2,3.5v4.7h11c1.5,0,2.8,0.7,3.8,2c1,1.4,1.5,3.1,1.5,5.1v1h4.1V50h-4.1v1c0,2-0.5,3.8-1.5,5.1c-1,1.4-2.3,2-3.8,2
		h-2.8v4.1h10.2C72.2,62.3,73.6,62.8,74.8,63.8z M63,54.1c0.3,0,0.5-0.3,0.8-0.9c0.3-0.6,0.4-1.3,0.4-2.2V40.8
		c0-0.9-0.1-1.6-0.4-2.2c-0.3-0.6-0.6-0.9-0.8-0.9H37c-0.3,0-0.5,0.3-0.8,0.9s-0.4,1.3-0.4,2.2V51c0,0.9,0.1,1.6,0.4,2.2
		c0.3,0.6,0.6,0.9,0.8,0.9H63z M43.9,41.8h-4.1v4.1h4.1V41.8z M56.1,62.3v-4.1H43.9v4.1H56.1z M60.2,41.8h-4.1v4.1h4.1V41.8z"/>
</g>
</svg>
