<?xml version="1.0" encoding="utf-8"?>
<!-- Generator: Adobe Illustrator 23.0.2, SVG Export Plug-In . SVG Version: 6.00 Build 0)  -->
<svg version="1.1" id="Layer_1" xmlns="http://www.w3.org/2000/svg" xmlns:xlink="http://www.w3.org/1999/xlink" x="0px" y="0px"
	 viewBox="0 0 1440 400" style="enable-background:new 0 0 1440 400;" xml:space="preserve">
<style type="text/css">
	.st0{opacity:0.5;fill:#FFFFFF;}
	.st1{fill:#FFFFFF;}
	.st2{stroke:#000000;stroke-miterlimit:10;}
	.st3{fill:#FFFFFF;stroke:#000000;stroke-miterlimit:10;}
	.st4{opacity:0.5;fill:#FFFFFF;stroke:#000000;stroke-miterlimit:10;}
	.st5{opacity:0.3;fill:#FFFFFF;stroke:#000000;stroke-miterlimit:10;}
	.st6{fill:none;stroke:#000000;stroke-width:5.2188;stroke-miterlimit:10;stroke-dasharray:12.5251;}
	.st7{fill:none;stroke:#000000;stroke-width:5;stroke-miterlimit:10;stroke-dasharray:12;}
	.st8{opacity:0.2;fill:#FFFFFF;}
</style>
<circle class="st0" cx="1055.5" cy="139.5" r="26.5"/>
<circle class="st0" cx="964" cy="242" r="45"/>
<path class="st0" d="M969.4,87.2c4.8,1.7,7.3,5.1,7.7,10c5-1.3,9.1,0,12.5,3.9c3.3-4,7.5-5.1,12.5-3.8c0.2-5.2,3-8.3,7.7-10.1
	c-1.3-2-2.3-4-2.1-6.2c0.3-2.1,1-4.1,1.6-6.3c-4.3-1.6-6.9-4.8-7.2-9.9c-5,1.2-9.2,0-12.5-3.9c-3.4,4-7.5,5.2-12.4,3.9
	c-0.4,5.1-3,8.3-7.7,10.1C972.2,79,972.1,83.1,969.4,87.2z"/>
<path d="M1015.2,135.8c0-17.6,14.1-31.7,31.7-31.7c17.5,0,31.7,14.2,31.7,31.7c0,17.4-14.3,31.7-31.7,31.7
	C1029.4,167.5,1015.2,153.3,1015.2,135.8z M1073.7,143.4c-0.7,0-1.4,0-2,0c-6.7,0-13.4,0-20.1,0c-0.7,0-1.5,0.1-2-0.2
	c-0.6-0.4-1.3-1.2-1.3-1.9c0-0.5,0.8-1.2,1.4-1.6c0.4-0.2,1-0.1,1.5-0.1c7.3,0,14.5,0,21.8,0c0.9,0,1.6,0,1.7-1.3
	c0.4-5.8-0.6-11.2-3.4-16.3c-0.5-0.9-1.1-1.3-2.2-1.3c-4,0.1-8,0-12,0c-2,0-3-0.7-2.9-1.9c0.2-1.7,1.5-1.8,2.8-1.8c3,0,6.1,0,9.1,0
	c0.3,0,0.7-0.1,1.1-0.2c-5.9-7.4-18-11.4-28.7-8c-8.2,2.6-17.3,11.2-17.5,16.8c0.5,0,0.9,0,1.4,0c7.2,0,14.4,0,21.6,0
	c1.9,0,2.7,0.7,2.6,2c-0.2,1.6-1.3,1.7-2.6,1.7c-5,0-9.9,0-14.9,0c-3.1,0-6.3,0-9.6,0c-0.2,1.5-0.4,2.8-0.6,4.4c6.4,0,12.5,0,18.6,0
	c0.7,0,1.5-0.1,2,0.2c0.6,0.4,1.2,1.2,1.2,1.8c0,0.6-0.8,1.2-1.4,1.6c-0.4,0.3-1.1,0.1-1.7,0.1c-5.5,0-11,0-16.5,0c-0.7,0-1.3,0-2,0
	c0,9.2,7.1,22.2,21.4,25.5c11.8,2.7,23.6-2.6,29-11.3c-0.6,0-1.2-0.1-1.7-0.1c-2.6,0-5.3,0-7.9,0c-1.2,0-2.4-0.3-2.4-1.8
	c0-1.5,1.1-1.8,2.4-1.8c2.8,0,5.6,0,8.4,0c4,0,4,0,5.2-3.9C1073.7,144,1073.7,143.9,1073.7,143.4z"/>
<g>
	<path d="M974.1,64.8c-0.1-0.5-0.2-1.1-0.3-1.7c-0.2-0.8-0.5-1.6,0.3-2.2c0.9-0.7,1.6-0.1,2.3,0.3c3,1.6,5.9,1.6,8.7-0.2
		c1.2-0.8,1.9-2.3,2.9-3.4c0.5-0.5,1-1.3,1.5-1.3c0.5,0,1.2,0.8,1.5,1.3c2,4.4,7.2,6.2,11.5,3.7c0.2-0.1,0.4-0.3,0.6-0.3
		c0.6-0.1,1.4-0.3,1.7-0.1c0.4,0.3,0.6,1.2,0.6,1.7c-1,5.6,1.8,9.2,7.3,9.7c0.6,0.1,1.5,0.6,1.6,1c0.1,0.6-0.3,1.4-0.8,1.8
		c-4,3.3-4,8.4,0,11.7c0.5,0.4,0.9,1.2,0.8,1.7c-0.1,0.5-1,1-1.6,1c-1.9,0.3-3.8,0.7-5.2,2.1c-2.2,2-3,4.4-2.2,7.2
		c0.2,0.9,0.5,1.8-0.5,2.2c-0.5,0.2-1.5,0-2-0.3c-4.3-2.6-9.6-0.9-11.7,3.6c-0.3,0.6-1,1.3-1.6,1.3c-0.4,0-1.2-0.7-1.4-1.3
		c-2.1-4.5-6.9-6.2-11.3-3.8c-0.4,0.2-0.8,0.5-1.2,0.6c-1.2,0.4-2.1-0.5-1.9-1.7c1.1-5.8-1.6-9.4-7.4-10c-0.5-0.1-1.4-0.6-1.4-1
		c-0.1-0.5,0.3-1.4,0.8-1.7c3.2-2.7,4-6.6,1.7-9.8c-0.5-0.7-1.2-1.1-1.7-1.8c-0.4-0.5-0.9-1.3-0.8-1.9c0.1-0.4,1-0.9,1.6-1
		c4.1-0.4,6.8-2.5,7.5-6.2C974,65.8,974,65.4,974.1,64.8z M969.4,87.2c4.8,1.7,7.3,5.1,7.7,10c5-1.3,9.1,0,12.5,3.9
		c3.3-4,7.5-5.1,12.5-3.8c0.2-5.2,3-8.3,7.7-10.1c-1.3-2-2.3-4-2.1-6.2c0.3-2.1,1-4.1,1.6-6.3c-4.3-1.6-6.9-4.8-7.2-9.9
		c-5,1.2-9.2,0-12.5-3.9c-3.4,4-7.5,5.2-12.4,3.9c-0.4,5.1-3,8.3-7.7,10.1C972.2,79,972.1,83.1,969.4,87.2z"/>
	<path d="M976.7,81c0-7.2,5.8-12.8,13.2-12.8c6.7,0,12.4,6,12.4,12.8c0,7-5.8,12.7-12.8,12.8C982.5,93.8,976.7,88.1,976.7,81z
		 M989.5,90.9c5.5,0,9.9-4.5,9.9-10c0-5.5-4.5-9.9-10-9.9c-5.5,0-9.9,4.4-9.9,10C979.6,86.5,984,90.9,989.5,90.9z"/>
</g>
<g>
	<path d="M1018.3,244.5c-0.1,28.9-23.6,52-52.9,51.5c-28.9-0.4-51.1-24.1-50.9-52.3c0.2-28.3,23.8-51.5,52.7-51.1
		C996.3,193,1018.5,216.9,1018.3,244.5z M1008.4,267.5c11.3-19.3,6-44-7.9-56.6c-0.2,0.1-0.4,0.2-0.6,0.3c-3.7,3-7.8,3.3-11.4,1
		c-3.5-2.2-4.9-6-3.7-10.6c0.4-1.4-0.3-1.6-1.3-2c-9.7-3.8-19.6-4.1-29.6-1.4c-3.1,0.8-6.1,2.2-9.3,3.3c2.4,5.2,2.4,9.8-1.6,13.4
		c-4.6,4.2-9.7,4-14.5,0.3c-11.1,12.4-12.9,34-6.8,45.8c4.3-1.3,8.1-0.5,10.8,3.2c3.2,4.4,2.2,8.7-1.4,12.7
		c5.7,6.4,12.6,10.5,20.5,13.2c0.3-0.5,0.4-0.8,0.5-1c1.9-4.6,5.4-7,10-6.7c4.4,0.3,7.7,3.3,8.7,8c0.3,1.5,1.1,1.6,2.3,1.4
		c6.8-1.1,13.2-3.4,19.1-7.1c0.7-0.5,1.4-1,2-1.5c-3.2-6-3.2-10.3,0.3-14C998.7,264.9,1003.4,264.6,1008.4,267.5z M930.7,212.4
		c3.3,3.2,7.4,3.4,10.3,1c3.1-2.6,3.6-6.3,0.9-10.4C938.1,206.1,934.4,209.2,930.7,212.4z M1007,270.9c-3.5-2.7-7.3-2.4-9.8,0.5
		c-2.4,2.8-2.3,7,0.7,9.7C1000.8,277.7,1003.8,274.4,1007,270.9z M966.3,292.6c0.2-3.1-1.5-5.2-4.2-5.5c-2.9-0.3-4.8,1.2-5.3,4.4
		C960,291.9,963.1,292.3,966.3,292.6z M989.8,202.3c-1,2.9-0.5,4.8,1.5,6c1.9,1.1,3.9,0.8,5.7-1.2
		C994.6,205.6,992.3,204,989.8,202.3z M927.9,273c2.2-2.1,2.4-4.1,0.9-6c-1.3-1.7-3.4-2.1-5.4-0.9C925,268.4,926.4,270.7,927.9,273z
		"/>
	<path class="st1" d="M966.3,292.6c-3.2-0.4-6.3-0.7-9.5-1.1c0.4-3.1,2.4-4.7,5.3-4.4C964.8,287.4,966.5,289.5,966.3,292.6z"/>
	<path class="st1" d="M989.8,202.3c2.5,1.7,4.8,3.3,7.1,4.9c-1.7,2-3.8,2.3-5.7,1.2C989.3,207.2,988.7,205.3,989.8,202.3z"/>
	<path class="st1" d="M927.9,273c-1.5-2.4-3-4.6-4.5-6.9c2-1.2,4.1-0.7,5.4,0.9C930.3,268.9,930.1,271,927.9,273z"/>
	<path d="M951.6,281c-6.8,0-12.1-5.5-12-12.3c0.1-6.6,5.6-12,12.2-12c6.6,0.1,12.1,5.5,12.1,12.2C963.8,275.6,958.4,281,951.6,281z
		 M959,269.2c0.1-4.2-3.1-7.6-7.1-7.7c-4.2-0.1-7.5,3.1-7.6,7.2c-0.1,4.1,3.1,7.5,7.3,7.5C955.6,276.3,958.9,273.2,959,269.2z"/>
	<path d="M961.5,237.4c-6.2,0.3-11.7-4.9-12.1-11.5c-0.4-6.4,4.9-12.3,11.3-12.6c7-0.3,12.6,4.6,13,11.3
		C974,231.7,968.9,237.1,961.5,237.4z M961.5,232.8c4.1,0,7.5-3.3,7.5-7.3c0-4-3.3-7.5-7.1-7.6c-4.1-0.1-7.7,3.3-7.7,7.4
		C954.1,229.4,957.4,232.7,961.5,232.8z"/>
	<path d="M994.4,219.5c5.5,0,10.1,4.6,10.1,10.1c0,5.5-4.6,10.1-10.2,10c-5.4-0.1-9.9-4.6-10-10
		C984.3,224.2,988.9,219.5,994.4,219.5z M999.7,229.6c0-3-2.3-5.3-5.3-5.2c-3,0-5.3,2.4-5.3,5.3c0,2.8,2.4,5.3,5.1,5.3
		C997.2,235,999.7,232.5,999.7,229.6z"/>
	<path d="M944.1,239.8c0,5.4-4.5,10-9.8,10c-5.9-0.1-10.3-4.4-10.3-10.1c0-5.4,4.5-10,9.8-10C939.6,229.7,944.1,234.1,944.1,239.8z
		 M928.7,239.7c0,2.9,2.4,5.3,5.3,5.3c2.9,0,5.2-2.3,5.3-5.2c0.1-2.9-2.3-5.3-5.3-5.4C931.1,234.5,928.7,236.8,928.7,239.7z"/>
	<path d="M969.1,253.7c0-5.5,4.4-9.9,9.9-9.9c5.5,0,10,4.4,10,9.9c0,5.5-4.5,10-9.9,10C973.7,263.6,969.1,259.1,969.1,253.7z
		 M984.3,253.6c0-2.9-2.3-5.1-5.2-5.1c-2.9,0-5.1,2.3-5.1,5.2c0,2.8,2.2,5.1,5,5.1C981.9,258.9,984.3,256.6,984.3,253.6z"/>
	<path class="st1" d="M960.8,269.2c-0.1,4.9-4.2,8.8-9.3,8.8c-5.1-0.1-9.1-4.2-9-9.3c0.1-5.1,4.2-9,9.4-8.9
		C957,259.9,960.9,264.1,960.8,269.2z"/>
	<path class="st1" d="M961.4,234.8c-5.2,0-9.4-4.4-9.3-9.6c0-5.2,4.6-9.5,9.9-9.4c4.9,0.1,9.1,4.5,9,9.6
		C971,230.6,966.6,234.9,961.4,234.8z"/>
	<path class="st1" d="M1001.7,229.6c0,4.1-3.5,7.5-7.6,7.4c-3.8,0-7-3.4-7.1-7.4c0-4,3.2-7.3,7.3-7.3
		C998.5,222.3,1001.7,225.4,1001.7,229.6z"/>
	<path class="st1" d="M926.8,239.7c0-4.1,3.2-7.2,7.3-7.2c4.1,0,7.3,3.3,7.2,7.3c-0.1,3.9-3.3,7.1-7.2,7.1
		C930.1,247.1,926.8,243.8,926.8,239.7z"/>
	<path class="st1" d="M984.3,253.6c0,2.9-2.4,5.3-5.4,5.3c-2.8,0-4.9-2.3-5-5.1c0-2.9,2.2-5.2,5.1-5.2
		C981.9,248.5,984.2,250.7,984.3,253.6z"/>
</g>
<g id="ZDwusf.tif">
	<g>
		<path class="st2" d="M446.8,96.2c6.4-4.6,12.7-2.7,16.3,0.9c2.2,2.2,3.2,4.9,3.4,7.9c0.1,3-0.9,5.7-2.7,8c1.2,1.5,1.2,1.6-0.2,3
			c-2.2,2.2-4.4,4.4-6.6,6.6c-1.2,1.2-1.4,1.2-2.8,0.1c-1,1-2.1,2.1-3.1,3.1c1.1,1.5,1.1,1.6-0.3,2.9c-2.6,2.6-5.2,5.2-7.9,7.9
			c1.2,1.2,2.4,2.4,3.7,3.7c1-1,2.1-2.1,3.2-3.2c2-2,2-2,4,0c5.2,5.2,10.4,10.4,15.6,15.6c1.2,1.2,1.2,1.6,0,2.7
			c-12.5,12.5-25,25-37.5,37.5c-1.2,1.2-1.6,1.2-2.7,0c-5.4-5.4-10.8-10.7-16.1-16.1c-1.3-1.3-1.3-1.6,0-2.9
			c5.8-5.8,11.7-11.7,17.5-17.5c0.7-0.7,0.8-1.1,0-1.8c-1-0.9-1.9-1.8-2.9-2.8c-1.4,1.4-2.6,2.6-3.9,3.9c-1.3,1.3-1.4,1.3-2.9,0.1
			c-1,1-2,2-3,3c-0.9,0.9-1.4,0.9-2.3,0c-4.9-4.9-9.7-9.7-14.6-14.6c-1-1-1-1.3,0-2.3c1-1,2-2,2.9-2.9c-1-1.7-1-1.7,0.4-3.1
			c1.2-1.2,2.4-2.4,3.6-3.6c-1.2-1.2-2.4-2.4-3.7-3.7c-0.3,0.3-0.6,0.6-0.9,0.9c-5.9,5.9-11.7,11.7-17.6,17.6
			c-1.1,1.1-1.5,1.1-2.6,0c-5.5-5.4-10.9-10.9-16.4-16.4c-1.1-1.1-1.1-1.5,0-2.6c12.6-12.6,25.2-25.2,37.7-37.7c1-1,1.4-1,2.5,0
			c5.5,5.5,11,11,16.4,16.4c1,1,1,1.5,0,2.5c-1.3,1.3-2.5,2.5-3.9,3.9c1.2,1.2,2.4,2.4,3.7,3.7c0.3-0.3,0.5-0.5,0.8-0.8
			c2.4-2.4,4.8-4.8,7.2-7.2c1.2-1.2,1.4-1.2,2.8-0.2c1-1,2.1-2.1,3.1-3.1c-1-1.5-1-1.6,0.3-2.9c2.2-2.2,4.5-4.5,6.7-6.7
			C445.2,95.1,445.5,95.1,446.8,96.2z M449,127.3c-5.5-5.5-10.9-10.9-16.3-16.3c-8.9,8.9-17.8,17.8-26.7,26.7
			c5.5,5.5,10.9,10.9,16.3,16.3C431.2,145.1,440,136.2,449,127.3z M461.7,114.6c-5.5-5.5-10.9-10.9-16.3-16.3
			c-2.1,2.1-4.1,4.1-6.2,6.2c5.5,5.5,10.9,10.9,16.3,16.3C457.6,118.7,459.7,116.6,461.7,114.6z M460.5,147.4
			c-3.8,3.8-7.5,7.5-11.2,11.2c2.3,2.3,4.6,4.6,6.9,6.9c3.7-3.7,7.5-7.5,11.2-11.2C465,151.9,462.8,149.7,460.5,147.4z M434.7,173.1
			c-3.8,3.8-7.5,7.5-11.2,11.2c2.3,2.3,4.6,4.6,6.9,6.9c3.8-3.8,7.5-7.5,11.2-11.2C439.3,177.6,437.1,175.4,434.7,173.1z
			 M440.6,149.8c2.4,2.4,4.6,4.6,7,7c3.7-3.7,7.4-7.4,11.2-11.2c-2.3-2.3-4.6-4.6-7-7C448,142.4,444.3,146.1,440.6,149.8z
			 M421.8,182.5c3.8-3.8,7.5-7.5,11.1-11.1c-2.4-2.4-4.6-4.6-6.9-6.9c-3.7,3.7-7.4,7.4-11.1,11.1
			C417.2,177.9,419.5,180.2,421.8,182.5z M410.1,119.4c3.7-3.7,7.4-7.4,11.1-11.1c-2.4-2.4-4.6-4.6-6.9-6.9
			c-3.7,3.7-7.4,7.4-11.1,11.1C405.5,114.8,407.8,117,410.1,119.4z M388.6,127c-3.8,3.8-7.5,7.5-11.2,11.2c2.3,2.3,4.6,4.6,6.9,6.9
			c3.7-3.7,7.4-7.4,11.2-11.2C393.2,131.6,391,129.3,388.6,127z M405.7,92.6c-3.7,3.7-7.4,7.4-11.2,11.2c2.3,2.3,4.6,4.6,6.9,6.9
			c3.7-3.7,7.4-7.4,11.2-11.2C410.3,97.3,408.1,95,405.7,92.6z M387,125.3c-2.4-2.4-4.7-4.7-6.9-6.9c-3.7,3.7-7.4,7.4-11.1,11.1
			c2.4,2.4,4.6,4.6,6.9,6.9C379.5,132.7,383.2,129.1,387,125.3z M443.3,178.3c3.8-3.8,7.4-7.4,11.1-11.1c-2.3-2.3-4.6-4.6-6.9-6.9
			c-3.7,3.7-7.4,7.4-11.1,11.1C438.7,173.7,441,175.9,443.3,178.3z M434.8,169.7c3.6-3.6,7.2-7.2,10.7-10.7c0.5-0.5,0.2-0.8-0.2-1.1
			c-1.7-1.7-3.5-3.5-5.2-5.2c-0.4-0.4-0.7-0.7-1.1-1.1c-3.8,3.8-7.5,7.5-11.2,11.2C430.1,165,432.4,167.3,434.8,169.7z M408.4,121.1
			c-2.3-2.3-4.6-4.6-7-7c-3.7,3.7-7.4,7.4-11.1,11.1c2.3,2.3,4.6,4.6,7,7C401,128.5,404.7,124.8,408.4,121.1z M392.9,105.5
			c-3.8,3.8-7.4,7.4-11.1,11.1c2.3,2.3,4.6,4.6,6.9,6.9c3.7-3.7,7.4-7.4,11.1-11.1C397.5,110.1,395.2,107.9,392.9,105.5z M462,111.4
			c3.2-3.7,2.8-9.4-0.8-12.9c-3.5-3.4-9.3-3.6-12.7-0.6C453.1,102.4,457.6,106.9,462,111.4z M409.6,130.7c4-4,8-8,11.9-11.9
			c-1.3-1.3-2.5-2.5-3.6-3.6c-4,4-7.9,7.9-11.9,11.9C407.2,128.3,408.4,129.4,409.6,130.7z M441.2,138.5c-4,4-7.9,7.9-11.9,11.9
			c1.2,1.2,2.4,2.4,3.6,3.6c4-4,7.9-7.9,11.9-11.9C443.6,140.9,442.5,139.8,441.2,138.5z M435.8,110.6c4.6,4.6,9.1,9.1,13.6,13.6
			c1.1-1.1,2.1-2.1,3.1-3.1c-4.6-4.6-9.1-9.1-13.6-13.6C437.8,108.6,436.8,109.6,435.8,110.6z M419.3,154.4c-4.5-4.5-9-9-13.6-13.6
			c-0.9,0.9-1.7,1.7-2.5,2.5c4.6,4.6,9.1,9.1,13.6,13.6C417.6,156,418.4,155.2,419.3,154.4z"/>
		<path class="st2" d="M401.5,156.9c1-1,2-2,3-3c0.6-0.6,1.2-1,1.9-0.3c0.7,0.7,0.3,1.4-0.2,1.9c-2.1,2.1-4.2,4.2-6.3,6.3
			c-0.6,0.6-1.3,0.9-1.9,0.3c-0.7-0.7-0.3-1.4,0.3-2C399.3,159,400.4,158,401.5,156.9z"/>
		<path class="st2" d="M410.1,162.6c-0.6,0.6-1.1,1.2-1.8,1.7c-0.5,0.5-1.2,0.6-1.7,0c-0.5-0.5-0.4-1.2,0.1-1.6
			c1.2-1.2,2.4-2.5,3.6-3.6c0.5-0.5,1.2-0.6,1.7,0c0.5,0.6,0.3,1.1-0.1,1.6C411.3,161.4,410.7,162,410.1,162.6z"/>
		<path class="st2" d="M397.5,149.9c0.6-0.6,1.2-1.2,1.7-1.7c0.5-0.5,1.1-0.6,1.6-0.1c0.6,0.5,0.5,1.2,0,1.7
			c-1.2,1.2-2.4,2.5-3.6,3.6c-0.5,0.5-1.1,0.6-1.6,0.1c-0.5-0.5-0.5-1.2,0.1-1.7C396.3,151.1,396.9,150.5,397.5,149.9z"/>
		<path class="st3" d="M449,127.3c-8.9,8.9-17.8,17.8-26.7,26.7c-5.4-5.4-10.8-10.8-16.3-16.3c8.9-8.9,17.8-17.8,26.7-26.7
			C438.1,116.5,443.5,121.9,449,127.3z"/>
		<path class="st3" d="M461.7,114.6c-2.1,2.1-4.1,4.1-6.2,6.2c-5.4-5.4-10.8-10.8-16.3-16.3c2.1-2.1,4.1-4.1,6.2-6.2
			C450.9,103.7,456.3,109.1,461.7,114.6z"/>
		<path class="st4" d="M460.5,147.4c2.3,2.3,4.6,4.6,6.9,6.9c-3.7,3.7-7.4,7.4-11.2,11.2c-2.3-2.3-4.6-4.6-6.9-6.9
			C453,154.8,456.7,151.1,460.5,147.4z"/>
		<path class="st4" d="M434.7,173.1c2.3,2.3,4.6,4.6,6.9,6.9c-3.7,3.7-7.4,7.4-11.2,11.2c-2.3-2.3-4.5-4.5-6.9-6.9
			C427.3,180.6,431,176.9,434.7,173.1z"/>
		<path class="st4" d="M440.6,149.8c3.7-3.7,7.4-7.4,11.2-11.2c2.3,2.3,4.6,4.6,7,7c-3.7,3.7-7.4,7.4-11.2,11.2
			C445.2,154.5,443,152.2,440.6,149.8z"/>
		<path class="st4" d="M421.8,182.5c-2.3-2.3-4.6-4.6-6.9-6.9c3.7-3.7,7.4-7.4,11.1-11.1c2.3,2.3,4.6,4.6,6.9,6.9
			C429.3,175.1,425.6,178.8,421.8,182.5z"/>
		<path class="st4" d="M410.1,119.4c-2.3-2.3-4.6-4.6-6.9-6.9c3.7-3.7,7.4-7.4,11.1-11.1c2.3,2.3,4.6,4.6,6.9,6.9
			C417.5,111.9,413.8,115.6,410.1,119.4z"/>
		<path class="st4" d="M388.6,127c2.3,2.3,4.6,4.6,6.9,6.9c-3.7,3.7-7.4,7.4-11.2,11.2c-2.3-2.3-4.6-4.6-6.9-6.9
			C381.2,134.5,384.9,130.8,388.6,127z"/>
		<path class="st4" d="M405.7,92.6c2.3,2.3,4.6,4.6,6.9,6.9c-3.7,3.7-7.4,7.4-11.2,11.2c-2.3-2.3-4.6-4.6-6.9-6.9
			C398.3,100.1,402,96.4,405.7,92.6z"/>
		<path class="st4" d="M387,125.3c-3.7,3.7-7.4,7.4-11.1,11.1c-2.3-2.3-4.6-4.6-6.9-6.9c3.7-3.7,7.4-7.4,11.1-11.1
			C382.3,120.7,384.6,123,387,125.3z"/>
		<path class="st4" d="M443.3,178.3c-2.3-2.3-4.6-4.6-6.9-6.9c3.7-3.7,7.4-7.4,11.1-11.1c2.3,2.3,4.6,4.6,6.9,6.9
			C450.8,170.8,447.1,174.5,443.3,178.3z"/>
		<path class="st4" d="M434.8,169.7c-2.4-2.4-4.7-4.7-7-7c3.7-3.7,7.4-7.4,11.2-11.2c0.4,0.4,0.7,0.7,1.1,1.1
			c1.7,1.7,3.5,3.5,5.2,5.2c0.3,0.3,0.7,0.6,0.2,1.1C441.9,162.5,438.4,166.1,434.8,169.7z"/>
		<path class="st4" d="M408.4,121.1c-3.7,3.7-7.4,7.4-11.1,11.1c-2.3-2.3-4.6-4.6-7-7c3.7-3.7,7.4-7.4,11.1-11.1
			C403.8,116.4,406.1,118.7,408.4,121.1z"/>
		<path class="st4" d="M392.9,105.5c2.4,2.4,4.6,4.6,6.9,6.9c-3.7,3.7-7.4,7.4-11.1,11.1c-2.3-2.3-4.6-4.6-6.9-6.9
			C385.4,112.9,389.1,109.3,392.9,105.5z"/>
		<path class="st4" d="M462,111.4c-4.5-4.5-9-9-13.4-13.4c3.4-3.1,9.2-2.8,12.7,0.6C464.8,102,465.2,107.7,462,111.4z"/>
		<path class="st5" d="M409.6,130.7c-1.2-1.2-2.4-2.4-3.6-3.6c4-4,7.9-7.9,11.9-11.9c1.2,1.2,2.4,2.4,3.6,3.6
			C417.5,122.7,413.6,126.6,409.6,130.7z"/>
		<path class="st5" d="M441.2,138.5c1.2,1.2,2.4,2.4,3.6,3.6c-4,4-7.9,7.9-11.9,11.9c-1.2-1.2-2.4-2.4-3.6-3.6
			C433.3,146.5,437.2,142.5,441.2,138.5z"/>
		<path class="st5" d="M435.8,110.6c1-1,2-2,3.1-3.1c4.5,4.5,9.1,9.1,13.6,13.6c-1,1-2,2-3.1,3.1
			C444.9,119.7,440.3,115.2,435.8,110.6z"/>
		<path class="st5" d="M419.3,154.4c-0.8,0.8-1.6,1.6-2.5,2.5c-4.5-4.5-9-9-13.6-13.6c0.8-0.8,1.6-1.6,2.5-2.5
			C410.2,145.3,414.7,149.8,419.3,154.4z"/>
	</g>
</g>
<path class="st6" d="M391.5,169.5c-98,115-39,354,262.7,311c298.8-42.6,305-77,305-77"/>
<path class="st7" d="M968.5,182.5c-1-19,20-42,46-42"/>
<path class="st7" d="M1057.5,95.5c0-18,0-65-68-65s-58-75-58-75"/>
<path class="st1" d="M989.5,90.9c5.5,0,9.9-4.5,9.9-10c0-5.5-4.5-9.9-10-9.9c-5.5,0-9.9,4.4-9.9,10C979.6,86.5,984,90.9,989.5,90.9z
	"/>
<path class="st8" d="M672.8,40.5c-6.5,0-11.8-5.3-11.8-11.8c0-0.1,0-0.2,0-0.2c-0.2,0-0.3,0-0.5,0c0,0.1,0,0.1,0,0.2
	c0,6.2-4.9,11.3-11,11.7c0,0.2,0,0.4,0,0.6c5.8,0.4,10.5,5.1,10.9,10.9c0.2,0,0.4,0,0.6,0c0.4-6.1,5.5-11,11.7-11c0.1,0,0.1,0,0.2,0
	c0-0.2,0-0.3,0-0.5C672.9,40.5,672.8,40.5,672.8,40.5z"/>
<path class="st8" d="M591.9,91.9c-2.9,0-5.2-2.4-5.2-5.2c0,0,0-0.1,0-0.1c-0.1,0-0.2,0-0.2,0c0,0,0,0.1,0,0.1c0,2.8-2.2,5.1-4.9,5.2
	c0,0.1,0,0.2,0,0.3c2.6,0.2,4.7,2.3,4.9,4.9c0.1,0,0.2,0,0.3,0c0.2-2.7,2.4-4.9,5.2-4.9c0,0,0.1,0,0.1,0c0-0.1,0-0.2,0-0.2
	C592,91.9,591.9,91.9,591.9,91.9z"/>
<path class="st8" d="M505.9,33.9c-2.9,0-5.2-2.4-5.2-5.2c0,0,0-0.1,0-0.1c-0.1,0-0.2,0-0.2,0c0,0,0,0.1,0,0.1c0,2.8-2.2,5.1-4.9,5.2
	c0,0.1,0,0.2,0,0.3c2.6,0.2,4.7,2.3,4.9,4.9c0.1,0,0.2,0,0.3,0c0.2-2.7,2.4-4.9,5.2-4.9c0,0,0.1,0,0.1,0c0-0.1,0-0.2,0-0.2
	C506,33.9,505.9,33.9,505.9,33.9z"/>
<path class="st8" d="M373.9,33.9c-2.9,0-5.2-2.4-5.2-5.2c0,0,0-0.1,0-0.1c-0.1,0-0.2,0-0.2,0c0,0,0,0.1,0,0.1c0,2.8-2.2,5.1-4.9,5.2
	c0,0.1,0,0.2,0,0.3c2.6,0.2,4.7,2.3,4.9,4.9c0.1,0,0.2,0,0.3,0c0.2-2.7,2.4-4.9,5.2-4.9c0,0,0.1,0,0.1,0c0-0.1,0-0.2,0-0.2
	C374,33.9,373.9,33.9,373.9,33.9z"/>
<path class="st8" d="M150.9,136.9c-2.9,0-5.2-2.4-5.2-5.2c0,0,0-0.1,0-0.1c-0.1,0-0.2,0-0.2,0c0,0,0,0.1,0,0.1
	c0,2.8-2.2,5.1-4.9,5.2c0,0.1,0,0.2,0,0.3c2.6,0.2,4.7,2.3,4.9,4.9c0.1,0,0.2,0,0.3,0c0.2-2.7,2.4-4.9,5.2-4.9c0,0,0.1,0,0.1,0
	c0-0.1,0-0.2,0-0.2C151,136.9,150.9,136.9,150.9,136.9z"/>
<path class="st8" d="M62.9,238.9c-2.9,0-5.2-2.4-5.2-5.2c0,0,0-0.1,0-0.1c-0.1,0-0.2,0-0.2,0c0,0,0,0.1,0,0.1c0,2.8-2.2,5.1-4.9,5.2
	c0,0.1,0,0.2,0,0.3c2.6,0.2,4.7,2.3,4.9,4.9c0.1,0,0.2,0,0.3,0c0.2-2.7,2.4-4.9,5.2-4.9c0,0,0.1,0,0.1,0c0-0.1,0-0.2,0-0.2
	C63,238.9,62.9,238.9,62.9,238.9z"/>
<path class="st8" d="M112.9,283.9c-2.9,0-5.2-2.4-5.2-5.2c0,0,0-0.1,0-0.1c-0.1,0-0.2,0-0.2,0c0,0,0,0.1,0,0.1
	c0,2.8-2.2,5.1-4.9,5.2c0,0.1,0,0.2,0,0.3c2.6,0.2,4.7,2.3,4.9,4.9c0.1,0,0.2,0,0.3,0c0.2-2.7,2.4-4.9,5.2-4.9c0,0,0.1,0,0.1,0
	c0-0.1,0-0.2,0-0.2C113,283.9,112.9,283.9,112.9,283.9z"/>
<path class="st8" d="M67.9,130.9c-2.9,0-5.2-2.4-5.2-5.2c0,0,0-0.1,0-0.1c-0.1,0-0.2,0-0.2,0c0,0,0,0.1,0,0.1c0,2.8-2.2,5.1-4.9,5.2
	c0,0.1,0,0.2,0,0.3c2.6,0.2,4.7,2.3,4.9,4.9c0.1,0,0.2,0,0.3,0c0.2-2.7,2.4-4.9,5.2-4.9c0,0,0.1,0,0.1,0c0-0.1,0-0.2,0-0.2
	C68,130.9,67.9,130.9,67.9,130.9z"/>
<path class="st8" d="M638.9,114.9c-2.9,0-5.2-2.4-5.2-5.2c0,0,0-0.1,0-0.1c-0.1,0-0.2,0-0.2,0c0,0,0,0.1,0,0.1
	c0,2.8-2.2,5.1-4.9,5.2c0,0.1,0,0.2,0,0.3c2.6,0.2,4.7,2.3,4.9,4.9c0.1,0,0.2,0,0.3,0c0.2-2.7,2.4-4.9,5.2-4.9c0,0,0.1,0,0.1,0
	c0-0.1,0-0.2,0-0.2C639,114.9,638.9,114.9,638.9,114.9z"/>
<path class="st8" d="M1153.9,311.9c-2.9,0-5.2-2.4-5.2-5.2c0,0,0-0.1,0-0.1c-0.1,0-0.2,0-0.2,0c0,0,0,0.1,0,0.1
	c0,2.8-2.2,5.1-4.9,5.2c0,0.1,0,0.2,0,0.3c2.6,0.2,4.7,2.3,4.9,4.9c0.1,0,0.2,0,0.3,0c0.2-2.7,2.4-4.9,5.2-4.9c0,0,0.1,0,0.1,0
	c0-0.1,0-0.2,0-0.2C1154,311.9,1153.9,311.9,1153.9,311.9z"/>
<path class="st8" d="M1186.9,237.9c-2.9,0-5.2-2.4-5.2-5.2c0,0,0-0.1,0-0.1c-0.1,0-0.2,0-0.2,0c0,0,0,0.1,0,0.1
	c0,2.8-2.2,5.1-4.9,5.2c0,0.1,0,0.2,0,0.3c2.6,0.2,4.7,2.3,4.9,4.9c0.1,0,0.2,0,0.3,0c0.2-2.7,2.4-4.9,5.2-4.9c0,0,0.1,0,0.1,0
	c0-0.1,0-0.2,0-0.2C1187,237.9,1186.9,237.9,1186.9,237.9z"/>
<path class="st8" d="M1337.9,185.9c-2.9,0-5.2-2.4-5.2-5.2c0,0,0-0.1,0-0.1c-0.1,0-0.2,0-0.2,0c0,0,0,0.1,0,0.1
	c0,2.8-2.2,5.1-4.9,5.2c0,0.1,0,0.2,0,0.3c2.6,0.2,4.7,2.3,4.9,4.9c0.1,0,0.2,0,0.3,0c0.2-2.7,2.4-4.9,5.2-4.9c0,0,0.1,0,0.1,0
	c0-0.1,0-0.2,0-0.2C1338,185.9,1337.9,185.9,1337.9,185.9z"/>
<path class="st8" d="M1272.9,114.9c-2.9,0-5.2-2.4-5.2-5.2c0,0,0-0.1,0-0.1c-0.1,0-0.2,0-0.2,0c0,0,0,0.1,0,0.1
	c0,2.8-2.2,5.1-4.9,5.2c0,0.1,0,0.2,0,0.3c2.6,0.2,4.7,2.3,4.9,4.9c0.1,0,0.2,0,0.3,0c0.2-2.7,2.4-4.9,5.2-4.9c0,0,0.1,0,0.1,0
	c0-0.1,0-0.2,0-0.2C1273,114.9,1272.9,114.9,1272.9,114.9z"/>
<path class="st8" d="M1245.9,70.9c-2.9,0-5.2-2.4-5.2-5.2c0,0,0-0.1,0-0.1c-0.1,0-0.2,0-0.2,0c0,0,0,0.1,0,0.1
	c0,2.8-2.2,5.1-4.9,5.2c0,0.1,0,0.2,0,0.3c2.6,0.2,4.7,2.3,4.9,4.9c0.1,0,0.2,0,0.3,0c0.2-2.7,2.4-4.9,5.2-4.9c0,0,0.1,0,0.1,0
	c0-0.1,0-0.2,0-0.2C1246,70.9,1245.9,70.9,1245.9,70.9z"/>
<path class="st8" d="M1191.9,65.9c-2.9,0-5.2-2.4-5.2-5.2c0,0,0-0.1,0-0.1c-0.1,0-0.2,0-0.2,0c0,0,0,0.1,0,0.1
	c0,2.8-2.2,5.1-4.9,5.2c0,0.1,0,0.2,0,0.3c2.6,0.2,4.7,2.3,4.9,4.9c0.1,0,0.2,0,0.3,0c0.2-2.7,2.4-4.9,5.2-4.9c0,0,0.1,0,0.1,0
	c0-0.1,0-0.2,0-0.2C1192,65.9,1191.9,65.9,1191.9,65.9z"/>
<path class="st8" d="M1158.9,95.9c-2.9,0-5.2-2.4-5.2-5.2c0,0,0-0.1,0-0.1c-0.1,0-0.2,0-0.2,0c0,0,0,0.1,0,0.1
	c0,2.8-2.2,5.1-4.9,5.2c0,0.1,0,0.2,0,0.3c2.6,0.2,4.7,2.3,4.9,4.9c0.1,0,0.2,0,0.3,0c0.2-2.7,2.4-4.9,5.2-4.9c0,0,0.1,0,0.1,0
	c0-0.1,0-0.2,0-0.2C1159,95.9,1158.9,95.9,1158.9,95.9z"/>
<path class="st8" d="M1277.9,163.9c-2.9,0-5.2-2.4-5.2-5.2c0,0,0-0.1,0-0.1c-0.1,0-0.2,0-0.2,0c0,0,0,0.1,0,0.1
	c0,2.8-2.2,5.1-4.9,5.2c0,0.1,0,0.2,0,0.3c2.6,0.2,4.7,2.3,4.9,4.9c0.1,0,0.2,0,0.3,0c0.2-2.7,2.4-4.9,5.2-4.9c0,0,0.1,0,0.1,0
	c0-0.1,0-0.2,0-0.2C1278,163.9,1277.9,163.9,1277.9,163.9z"/>
<path class="st8" d="M1332.9,306.9c-2.9,0-5.2-2.4-5.2-5.2c0,0,0-0.1,0-0.1c-0.1,0-0.2,0-0.2,0c0,0,0,0.1,0,0.1
	c0,2.8-2.2,5.1-4.9,5.2c0,0.1,0,0.2,0,0.3c2.6,0.2,4.7,2.3,4.9,4.9c0.1,0,0.2,0,0.3,0c0.2-2.7,2.4-4.9,5.2-4.9c0,0,0.1,0,0.1,0
	c0-0.1,0-0.2,0-0.2C1333,306.9,1332.9,306.9,1332.9,306.9z"/>
<path class="st8" d="M1356.9,124.9c-2.9,0-5.2-2.4-5.2-5.2c0,0,0-0.1,0-0.1c-0.1,0-0.2,0-0.2,0c0,0,0,0.1,0,0.1
	c0,2.8-2.2,5.1-4.9,5.2c0,0.1,0,0.2,0,0.3c2.6,0.2,4.7,2.3,4.9,4.9c0.1,0,0.2,0,0.3,0c0.2-2.7,2.4-4.9,5.2-4.9c0,0,0.1,0,0.1,0
	c0-0.1,0-0.2,0-0.2C1357,124.9,1356.9,124.9,1356.9,124.9z"/>
<path class="st8" d="M1424.9,263.9c-2.9,0-5.2-2.4-5.2-5.2c0,0,0-0.1,0-0.1c-0.1,0-0.2,0-0.2,0c0,0,0,0.1,0,0.1
	c0,2.8-2.2,5.1-4.9,5.2c0,0.1,0,0.2,0,0.3c2.6,0.2,4.7,2.3,4.9,4.9c0.1,0,0.2,0,0.3,0c0.2-2.7,2.4-4.9,5.2-4.9c0,0,0.1,0,0.1,0
	c0-0.1,0-0.2,0-0.2C1425,263.9,1424.9,263.9,1424.9,263.9z"/>
<path class="st8" d="M578.9,180.9c-2.9,0-5.2-2.4-5.2-5.2c0,0,0-0.1,0-0.1c-0.1,0-0.2,0-0.2,0c0,0,0,0.1,0,0.1
	c0,2.8-2.2,5.1-4.9,5.2c0,0.1,0,0.2,0,0.3c2.6,0.2,4.7,2.3,4.9,4.9c0.1,0,0.2,0,0.3,0c0.2-2.7,2.4-4.9,5.2-4.9c0,0,0.1,0,0.1,0
	c0-0.1,0-0.2,0-0.2C579,180.9,578.9,180.9,578.9,180.9z"/>
<path class="st8" d="M909.9,51.9c-2.9,0-5.2-2.4-5.2-5.2c0,0,0-0.1,0-0.1c-0.1,0-0.2,0-0.2,0c0,0,0,0.1,0,0.1c0,2.8-2.2,5.1-4.9,5.2
	c0,0.1,0,0.2,0,0.3c2.6,0.2,4.7,2.3,4.9,4.9c0.1,0,0.2,0,0.3,0c0.2-2.7,2.4-4.9,5.2-4.9c0,0,0.1,0,0.1,0c0-0.1,0-0.2,0-0.2
	C910,51.9,909.9,51.9,909.9,51.9z"/>
<path class="st8" d="M480.9,243.9c-2.9,0-5.2-2.4-5.2-5.2c0,0,0-0.1,0-0.1c-0.1,0-0.2,0-0.2,0c0,0,0,0.1,0,0.1
	c0,2.8-2.2,5.1-4.9,5.2c0,0.1,0,0.2,0,0.3c2.6,0.2,4.7,2.3,4.9,4.9c0.1,0,0.2,0,0.3,0c0.2-2.7,2.4-4.9,5.2-4.9c0,0,0.1,0,0.1,0
	c0-0.1,0-0.2,0-0.2C481,243.9,480.9,243.9,480.9,243.9z"/>
<path class="st8" d="M338.9,196.9c-2.9,0-5.2-2.4-5.2-5.2c0,0,0-0.1,0-0.1c-0.1,0-0.2,0-0.2,0c0,0,0,0.1,0,0.1
	c0,2.8-2.2,5.1-4.9,5.2c0,0.1,0,0.2,0,0.3c2.6,0.2,4.7,2.3,4.9,4.9c0.1,0,0.2,0,0.3,0c0.2-2.7,2.4-4.9,5.2-4.9c0,0,0.1,0,0.1,0
	c0-0.1,0-0.2,0-0.2C339,196.9,338.9,196.9,338.9,196.9z"/>
<path class="st8" d="M316.9,180.9c-2.9,0-5.2-2.4-5.2-5.2c0,0,0-0.1,0-0.1c-0.1,0-0.2,0-0.2,0c0,0,0,0.1,0,0.1
	c0,2.8-2.2,5.1-4.9,5.2c0,0.1,0,0.2,0,0.3c2.6,0.2,4.7,2.3,4.9,4.9c0.1,0,0.2,0,0.3,0c0.2-2.7,2.4-4.9,5.2-4.9c0,0,0.1,0,0.1,0
	c0-0.1,0-0.2,0-0.2C317,180.9,316.9,180.9,316.9,180.9z"/>
<path class="st8" d="M267.9,217.9c-2.9,0-5.2-2.4-5.2-5.2c0,0,0-0.1,0-0.1c-0.1,0-0.2,0-0.2,0c0,0,0,0.1,0,0.1
	c0,2.8-2.2,5.1-4.9,5.2c0,0.1,0,0.2,0,0.3c2.6,0.2,4.7,2.3,4.9,4.9c0.1,0,0.2,0,0.3,0c0.2-2.7,2.4-4.9,5.2-4.9c0,0,0.1,0,0.1,0
	c0-0.1,0-0.2,0-0.2C268,217.9,267.9,217.9,267.9,217.9z"/>
<path class="st8" d="M257.9,332.9c-2.9,0-5.2-2.4-5.2-5.2c0,0,0-0.1,0-0.1c-0.1,0-0.2,0-0.2,0c0,0,0,0.1,0,0.1
	c0,2.8-2.2,5.1-4.9,5.2c0,0.1,0,0.2,0,0.3c2.6,0.2,4.7,2.3,4.9,4.9c0.1,0,0.2,0,0.3,0c0.2-2.7,2.4-4.9,5.2-4.9c0,0,0.1,0,0.1,0
	c0-0.1,0-0.2,0-0.2C258,332.9,257.9,332.9,257.9,332.9z"/>
</svg>
