<?xml version="1.0" encoding="utf-8"?>
<!-- Generator: Adobe Illustrator 23.0.2, SVG Export Plug-In . SVG Version: 6.00 Build 0)  -->
<svg version="1.1" id="Layer_1" xmlns="http://www.w3.org/2000/svg" xmlns:xlink="http://www.w3.org/1999/xlink" x="0px" y="0px"
	 viewBox="0 0 2000 451" style="enable-background:new 0 0 2000 451;" xml:space="preserve">
<style type="text/css">
	.st0{stroke:#000000;stroke-width:3;stroke-miterlimit:10;}
	.st1{fill:#FFFFFF;stroke:#000000;stroke-width:3;stroke-miterlimit:10;}
	.st2{fill:#FFFFFF;stroke:#000000;stroke-width:8;stroke-linejoin:round;stroke-miterlimit:10;}
	.st3{fill:none;stroke:#000000;stroke-width:8;stroke-linejoin:round;stroke-miterlimit:10;}
	.st4{fill:#FFFFFF;stroke:#000000;stroke-width:8;stroke-miterlimit:10;}
	.st5{stroke:#000000;stroke-width:4;stroke-miterlimit:10;}
	.st6{opacity:0.5;fill:#FFFFFF;stroke:#000000;stroke-width:4;stroke-miterlimit:10;}
	.st7{fill:#FFFFFF;stroke:#000000;stroke-width:4;stroke-miterlimit:10;}
	.st8{opacity:0.1;fill:#FFFFFF;}
</style>
<g id="B7UEjJ.tif">
	<g>
		<path class="st0" d="M1740.9,154.3c5.9-5.5,12.1-11.6,18.7-17.2c3.9-3.4,5.1-7.2,5.1-12.3c-0.3-22.9-0.1-45.8-0.1-68.7
			c-0.1-23.4,10.8-40.3,30.6-52c1-0.6,2.9-0.7,3.9-0.1c14.7,8.5,25.1,20.4,29.1,37.2c1,4.4,1.6,9,1.6,13.6c0.1,25,0.1,50,0,75
			c0,1.8,0.5,3.1,1.8,4.4c6.5,6.6,12.9,13.2,19.4,19.8c0.6,0.6,1.2,1.1,2,1.9c0.4-5.3,1.8-10.1,5.1-13.8c2.5-2.7,5.5-5.1,8.4-7.3
			c0.7-0.5,2.4-0.5,3.2,0c8.2,4.9,13.2,11.9,13.3,21.7c0.1,13.7,0,27.5,0,41.2c0,3.3-0.7,4-3.9,4c-6.9,0-13.8,0-20.7,0
			c-5,0-5,0-5.5-4.9c-7.5,0-15.1,0-23.1,0c0,1.2,0,2.4,0,3.6c0,4.4,0,4.4-4.5,5.3c0,2.5,0,5,0,7.6c0,3.1-0.8,3.9-3.8,3.9
			c-16.2,0-32.3,0-48.5,0c-3,0-3.7-0.7-3.7-3.7c0-2.6,0-5.1,0-7.9c-7,0-3.9-5.4-4.9-8.8c-7.6,0-15.3,0-23.2,0c0,0.4-0.1,0.9-0.1,1.4
			c-0.2,2.8-0.8,3.5-3.6,3.5c-7.3,0-14.7,0-22,0c-3.7,0-4.4-0.6-4.4-4.3c0-13.2,0-26.3,0-39.5c0-4.2,0.9-8.1,2.6-11.8
			c2.3-5,6.1-8.7,10.9-11.3c0.9-0.5,2.8-0.2,3.8,0.5C1735.9,139.8,1740.4,146.5,1740.9,154.3z M1824.4,56.6c-18.3,0-36.3,0-54.3,0
			c0,47.8,0,95.4,0,143.1c18.2,0,36.2,0,54.3,0C1824.4,151.9,1824.4,104.4,1824.4,56.6z M1824.4,50.9c-0.2-1.8-0.3-3.4-0.6-4.9
			c-3-15.8-11.6-27.7-25.1-36.2c-0.7-0.4-2.1-0.4-2.8,0c-7.9,4.9-14.6,11.1-19.2,19.2c-3.8,6.7-6.1,14-6.7,21.9
			C1788.2,50.9,1806.1,50.9,1824.4,50.9z M1764.5,140c-0.5,0.3-0.7,0.4-0.8,0.5c-7.2,7.5-14.5,14.9-21.7,22.5
			c-0.6,0.6-0.9,1.8-0.9,2.7c-0.1,3.8,0,7.7,0,11.5c0,4.6,0,9.1,0,13.7c8,0,15.7,0,23.5,0C1764.5,173.9,1764.5,157.1,1764.5,140z
			 M1853,191c0-8.9,0-17.5-0.1-26.2c0-0.8-0.7-1.7-1.3-2.3c-6.7-7-13.4-13.9-20.1-20.8c-0.4-0.4-0.9-0.8-1.6-1.3c0,17,0,33.8,0,50.6
			C1837.7,191,1845.2,191,1853,191z M1716.6,159.2c0,12.4,0,24.6,0,37c6.3,0,12.5,0,18.9,0c0-12.4,0-24.6,0-37
			C1729.1,159.2,1722.9,159.2,1716.6,159.2z M1858.6,159.2c0,12.4,0,24.7,0,37c6.3,0,12.5,0,18.9,0c0-12.4,0-24.7,0-37
			C1871.1,159.2,1864.9,159.2,1858.6,159.2z M1774.6,211.7c15.2,0,30.2,0,45.2,0c0-2.2,0-4.2,0-6.3c-15.1,0-30.1,0-45.2,0
			C1774.6,207.6,1774.6,209.6,1774.6,211.7z M1877.4,153.6c-1.1-5.6-3.8-9.8-8.2-12.9c-0.5-0.3-1.3-0.6-1.7-0.4
			c-4.1,2.2-9.2,9.5-8.5,13.3C1865,153.6,1871,153.6,1877.4,153.6z M1735.3,153.6c-0.9-5.8-3.9-9.8-8.4-12.9c-0.4-0.3-1.5-0.3-1.9,0
			c-4.4,3.2-7.4,7.2-8.2,13C1723,153.6,1729,153.6,1735.3,153.6z"/>
		<path class="st1" d="M1824.4,56.6c0,47.8,0,95.3,0,143.1c-18.1,0-36.1,0-54.3,0c0-47.7,0-95.3,0-143.1
			C1788.2,56.6,1806.2,56.6,1824.4,56.6z M1815.2,84.2c-0.1-10-8-17.9-18-17.9c-10,0-18.2,8.2-18,18.2c0.2,9.9,8.3,17.9,18.2,17.8
			C1807.3,102.1,1815.2,94.1,1815.2,84.2z"/>
		<path class="st1" d="M1824.4,50.9c-18.3,0-36.3,0-54.4,0c0.6-7.9,2.8-15.1,6.7-21.9c4.7-8.2,11.4-14.3,19.2-19.2
			c0.7-0.4,2.1-0.4,2.8,0c13.6,8.4,22.2,20.3,25.1,36.2C1824.1,47.6,1824.2,49.1,1824.4,50.9z"/>
		<path class="st1" d="M1764.5,140c0,17.1,0,33.9,0,50.9c-7.8,0-15.5,0-23.5,0c0-4.6,0-9.2,0-13.7c0-3.8-0.1-7.7,0-11.5
			c0-0.9,0.3-2,0.9-2.7c7.2-7.5,14.4-15,21.7-22.5C1763.8,140.4,1764,140.3,1764.5,140z"/>
		<path class="st1" d="M1853,191c-7.8,0-15.3,0-23,0c0-16.8,0-33.5,0-50.6c0.6,0.5,1.2,0.9,1.6,1.3c6.7,6.9,13.4,13.9,20.1,20.8
			c0.6,0.6,1.2,1.5,1.3,2.3C1853,173.5,1853,182.1,1853,191z"/>
		<path class="st1" d="M1716.6,159.2c6.3,0,12.5,0,18.9,0c0,12.4,0,24.7,0,37c-6.3,0-12.5,0-18.9,0
			C1716.6,183.9,1716.6,171.6,1716.6,159.2z"/>
		<path class="st1" d="M1858.6,159.2c6.3,0,12.5,0,18.9,0c0,12.4,0,24.6,0,37c-6.3,0-12.5,0-18.9,0
			C1858.6,183.9,1858.6,171.6,1858.6,159.2z"/>
		<path class="st1" d="M1774.6,211.7c0-2.1,0-4.1,0-6.3c15.1,0,30.1,0,45.2,0c0,2.1,0,4.1,0,6.3
			C1804.8,211.7,1789.8,211.7,1774.6,211.7z"/>
		<path class="st1" d="M1877.4,153.6c-6.4,0-12.4,0-18.4,0c-0.8-3.7,4.4-11,8.5-13.3c0.4-0.2,1.3,0.1,1.7,0.4
			C1873.6,143.8,1876.3,148,1877.4,153.6z"/>
		<path class="st1" d="M1735.3,153.6c-6.3,0-12.3,0-18.5,0c0.8-5.8,3.8-9.8,8.2-13c0.4-0.3,1.5-0.3,1.9,0
			C1731.4,143.7,1734.5,147.8,1735.3,153.6z"/>
		<path class="st0" d="M1815.2,84.2c0.1,9.9-7.9,17.9-17.8,18c-9.9,0.1-18-7.8-18.2-17.8c-0.2-9.9,8-18.1,18-18.2
			C1807.2,66.3,1815.1,74.2,1815.2,84.2z M1809.9,84.1c-0.1-7-6-12.6-13.2-12.5c-6.6,0.1-12.2,6-12.2,12.8c0.1,7,6,12.6,13.2,12.5
			C1804.3,96.8,1810,90.8,1809.9,84.1z"/>
		<path class="st1" d="M1809.9,84.1c0.1,6.7-5.6,12.7-12.2,12.8c-7.2,0.1-13.1-5.6-13.2-12.5c-0.1-6.7,5.6-12.7,12.2-12.8
			C1803.9,71.5,1809.8,77.1,1809.9,84.1z"/>
		<path d="M1798.8,74.8c3.7,0.1,7.7,4.1,7.4,8.4c-0.1,1-1.2,2.4-2.1,2.7c-1.5,0.5-2.8-0.4-3-2.1c-0.3-2.3-1.5-3.4-3.6-3.7
			c-1.6-0.3-2.6-1.2-2.4-2.9C1795.3,75.3,1796.6,74.8,1798.8,74.8z"/>
	</g>
</g>
<rect x="123" y="281" class="st2" width="65" height="50"/>
<rect x="141" y="267" class="st2" width="65" height="50"/>
<line class="st3" x1="206" y1="292" x2="206" y2="426"/>
<path class="st4" d="M1973,426h-45.5c-2.4-30.2-20.2-56.1-45.6-69.7c0.1-1.4,0.2-2.8,0.2-4.3c0-29.6-22.1-54-50.8-57.5
	c1.1-3.6,1.8-7.5,1.8-11.5c0-21-17-38-38-38s-38,17-38,38c0,3.8,0.6,7.5,1.6,11c-0.5,0-1.1,0-1.6,0c-32,0-58,26-58,58
	c0,1.4,0.1,2.9,0.2,4.3c-25.4,13.6-43.2,39.5-45.6,69.7H1534l-153.5-153.5L1250,403l-45.5-45.5L1159,403l-45.5-45.5L1068,403
	l-45.5-45.5L977,403l-45.5-45.5L863,426H432.5c-4.5-44.4-42-79-87.5-79c-45.6,0-83,34.6-87.5,79H28c-12.7,0-23,10.3-23,23v0
	c0,12.7,10.3,23,23,23h1937h8c12.7,0,23-10.3,23-23v0C1996,436.3,1985.7,426,1973,426z"/>
<g id="NO2mhB.tif">
	<g>
		<path class="st5" d="M461.7,315.3c-22.1-43.5,2.9-85.2,34.3-98.2c32.5-13.5,78.2-0.6,93.6,43.8c2.7-0.6,5.3-1.4,8-1.8
			c13.9-1.9,26.9,6.6,31,20.2c4,13.3-2.3,27.8-14.7,33.8c-4.2,2-8.6,3.8-13.4,5.9c5.6,3.5,10.8,6.8,16,10c0.9,0.6,2.1,1,2.6,1.8
			c0.6,1,1.2,2.7,0.7,3.5c-0.4,0.8-2.1,1.1-3.3,1.3c-0.7,0.1-1.4-0.6-2.1-1.1c-5.9-3.7-11.9-7.3-17.8-11.1c-2-1.3-3.8-1.6-5.8-0.4
			c-1.1,0.7-2.4,1.1-3.9,1.7c0.6,1,1.1,1.8,1.6,2.6c20.8,31.8,41.6,63.7,62.4,95.5c0.3,0.5,0.6,1.2,1,1.6c4,3.5,1.6,7.8-2.5,9.2
			c-6.2,2.2-12.6,4.2-19.1,5.2c-19.4,2.9-39,3.4-58.5,2.8c-14.8-0.5-29.6-1.3-44-4.8c-2.7-0.7-5.2-1.8-7.8-2.8
			c-3.5-1.4-5.1-4.1-5.4-7.9c-0.6-9.8-1.5-19.5-2.2-29.3c-1-12.4-1.9-24.9-2.9-37.3c0-0.5-0.2-1-0.3-1.8c-2.2,0.9-4.1,1.6-6,2.6
			c-0.6,0.3-0.9,1.2-1.1,1.9c-1.6,7.3-3.2,14.5-4.8,21.8c-0.2,0.7-0.1,1.6-0.6,2c-0.9,0.9-2.3,2.2-3.2,2c-0.9-0.2-2.2-2.1-2.1-3.1
			c0.3-3.3,1.2-6.5,1.9-9.7c0.8-3.8,1.6-7.6,2.6-12c-4.2,1.8-7.9,3.3-11.6,4.9c-16.4,7.3-35.2-2.3-39.4-19.4
			c-3.1-12.5,2.7-25.8,14.1-32.1C459.8,316.3,460.6,315.9,461.7,315.3z M581.4,327.1c-0.8,0.3-1.6,0.6-2.3,0.9
			c-19.4,8.2-38.7,16.4-58.1,24.5c-6.1,2.6-6.1,2.6-5.6,9.3c0,0.3,0,0.5,0.1,0.8c1.5,19.4,3,38.8,4.5,58.2c0,0.5,0.3,1,0.2,0.8
			c40.6-9.4,81.1-8.2,121.6-2.1C621.9,389,601.7,358.1,581.4,327.1z M467.2,313.1c39.1-16.6,78-33.2,116.9-49.7
			c-9.7-26.1-27.4-42.5-55.1-45.3c-24.8-2.5-45.2,7.1-59.1,27.9C455.6,267.4,455.9,290.1,467.2,313.1z M472.8,365.5
			c3.6-1.1,7.3-1.9,10.7-3.3c31.2-13.1,62.3-26.3,93.4-39.5c12-5.1,24.1-9.9,35.8-15.6c10.8-5.2,14.7-20.1,8.7-30.5
			c-6.4-11.1-18.1-15-30.1-9.8c-42.5,18-85,36.1-127.5,54.1c-10.2,4.3-15.7,14.9-13.4,25.7C452.4,357.3,461.6,364.8,472.8,365.5z
			 M647.6,429.2c0-0.4,0-0.8,0-1.3c-3.1-0.9-6.2-2.1-9.4-2.8c-12.6-2.7-25.4-3.6-38.2-4.1c-22.3-0.8-44.6-0.4-66.7,3.5
			c-4.1,0.7-8,2.1-12,3.2c0.1,0.3,0.1,0.6,0.2,0.9c1.1,0.5,2.3,1,3.4,1.4c9.4,3,19.1,4.1,28.8,4.8c26.7,1.9,53.4,2,79.9-2.3
			C638.3,431.8,642.9,430.3,647.6,429.2z"/>
		<path class="st6" d="M581.4,327.1c20.3,31,40.4,61.9,60.4,92.5c-40.6-6.1-81-7.2-121.6,2.1c0,0.1-0.2-0.4-0.2-0.8
			c-1.5-19.4-3-38.8-4.5-58.2c0-0.3,0-0.5-0.1-0.8c-0.5-6.7-0.5-6.7,5.6-9.3c19.4-8.2,38.7-16.4,58.1-24.5
			C579.9,327.7,580.6,327.5,581.4,327.1z"/>
		<path class="st7" d="M472.8,365.5c-11.1-0.7-20.3-8.2-22.5-18.8c-2.2-10.8,3.3-21.4,13.4-25.7c42.5-18.1,85-36.1,127.5-54.1
			c12.1-5.1,23.7-1.2,30.1,9.8c6,10.4,2.1,25.3-8.7,30.5c-11.7,5.6-23.8,10.5-35.8,15.6c-31.1,13.2-62.2,26.4-93.4,39.5
			C480,363.6,476.3,364.4,472.8,365.5z M536.9,328.4c7.4,0,13.7-6.3,13.7-13.8c0-7.3-6.2-13.4-13.7-13.4c-7.5,0-13.6,6-13.6,13.4
			C523.2,322.1,529.3,328.3,536.9,328.4z M560.1,299c-0.1,7.6,6.1,13.8,13.9,13.8c7.1,0,13.2-6.2,13.3-13.5
			c0-7.6-5.8-13.6-13.3-13.7C566.1,285.5,560.2,291.3,560.1,299z M500,343.9c7.6,0,13.8-6.1,13.8-13.6c0-7.4-6.2-13.5-13.5-13.6
			c-7.6,0-13.7,6-13.7,13.6C486.5,337.8,492.5,343.9,500,343.9z"/>
		<path class="st7" d="M647.6,429.2c-4.6,1.1-9.2,2.5-13.9,3.3c-26.5,4.4-53.2,4.2-79.9,2.3c-9.7-0.7-19.4-1.8-28.8-4.8
			c-1.2-0.4-2.3-0.9-3.4-1.4c-0.1-0.3-0.1-0.6-0.2-0.9c4-1.1,7.9-2.5,12-3.2c22.1-4,44.4-4.3,66.7-3.5c12.8,0.4,25.6,1.3,38.2,4.1
			c3.2,0.7,6.3,1.9,9.4,2.8C647.6,428.4,647.6,428.8,647.6,429.2z"/>
		<path d="M521.5,226.9c12.1,0.3,20.4,2.4,28.2,6.7c1.7,1,3.1,2.1,2.1,4.2c-1.1,2.3-3,1.9-4.8,0.9c-9.1-4.9-18.8-6.9-29.1-5.3
			c-3.5,0.6-6.9,1.7-10.3,2.8c-2,0.6-3.8,1-4.8-1.2c-0.9-1.8,0.1-3.5,2.9-4.2C511.9,229.1,518.2,227.7,521.5,226.9z"/>
		<path d="M572.8,260.7c-0.5,0.5-1.1,1.7-2,1.9c-0.9,0.2-2.2-0.3-3-0.9c-0.7-0.5-1-1.6-1.5-2.5c-2.5-5.4-6-10.1-10.5-14.1
			c-0.4-0.4-1-0.8-1.1-1.2c-0.1-1.3-0.3-2.9,0.4-3.8c0.5-0.6,2.8-0.8,3.5-0.2c6.2,5.3,11,11.7,14,19.3
			C572.7,259.5,572.7,259.8,572.8,260.7z"/>
		<path class="st5" d="M536.9,328.4c-7.5,0-13.7-6.3-13.6-13.8c0.1-7.4,6.2-13.4,13.6-13.4c7.4,0,13.6,6.1,13.7,13.4
			C550.6,322,544.3,328.4,536.9,328.4z M536.8,306.9c-4.2,0-7.7,3.4-7.8,7.6c-0.1,4.3,3.7,8.1,7.8,8.1c4.4-0.1,7.9-3.5,7.9-7.9
			C544.7,310.4,541.3,306.9,536.8,306.9z"/>
		<path class="st5" d="M560.1,299c0.1-7.7,6-13.5,13.8-13.4c7.5,0.1,13.4,6.1,13.3,13.7c0,7.3-6.1,13.6-13.3,13.5
			C566.2,312.8,560.1,306.6,560.1,299z M581.5,298.9c-0.1-4.4-3.7-7.7-8.4-7.6c-3.9,0.1-7.4,3.8-7.3,7.8c0,4.2,3.8,7.9,8,7.9
			C578,306.9,581.6,303.2,581.5,298.9z"/>
		<path class="st5" d="M500,343.9c-7.4,0-13.5-6-13.5-13.5c0-7.6,6.1-13.6,13.7-13.6c7.4,0,13.5,6.2,13.5,13.6
			C513.7,337.8,507.6,343.8,500,343.9z M492.3,330.4c0,4.3,3.7,7.9,7.9,7.9c4.1-0.1,7.8-4,7.8-8.1c-0.1-4.4-3.7-7.7-8.4-7.6
			C495.6,322.6,492.3,326.1,492.3,330.4z"/>
		<path class="st7" d="M536.8,306.9c4.4,0,7.9,3.4,7.9,7.8c0,4.4-3.5,7.8-7.9,7.9c-4.1,0.1-7.8-3.8-7.8-8.1
			C529.1,310.3,532.6,306.9,536.8,306.9z"/>
		<path class="st7" d="M581.5,298.9c0.1,4.3-3.5,8-7.7,8.1c-4.2,0.1-7.9-3.7-8-7.9c0-4.1,3.4-7.8,7.3-7.8
			C577.8,291.2,581.4,294.5,581.5,298.9z"/>
		<path class="st7" d="M492.3,330.4c0-4.2,3.3-7.8,7.3-7.8c4.7-0.1,8.3,3.2,8.4,7.6c0.1,4.2-3.6,8.1-7.8,8.1
			C496,338.3,492.3,334.7,492.3,330.4z"/>
	</g>
</g>
<path class="st8" d="M467.2,313.1c39.1-16.6,78-33.2,116.9-49.7c-9.7-26.1-27.4-42.5-55.1-45.3c-24.8-2.5-45.2,7.1-59.1,27.9
	C455.6,267.4,455.9,290.1,467.2,313.1z"/>
</svg>
